<svg width="28" height="28" viewBox="0 0 28 28" fill="none" xmlns="http://www.w3.org/2000/svg">
<path d="M0.5 14C0.5 6.54416 6.54416 0.5 14 0.5C21.4558 0.5 27.5 6.54416 27.5 14C27.5 21.4558 21.4558 27.5 14 27.5C6.54416 27.5 0.5 21.4558 0.5 14Z" stroke="#E5E7EB"/>
<path d="M20 12.6667V11.3333C19.9998 11.0995 19.938 10.8699 19.821 10.6675C19.704 10.465 19.5358 10.2969 19.3333 10.18L14.6667 7.51335C14.464 7.39633 14.234 7.33472 14 7.33472C13.766 7.33472 13.536 7.39633 13.3333 7.51335L8.66667 10.18C8.46418 10.2969 8.29599 10.465 8.17897 10.6675C8.06196 10.8699 8.00024 11.0995 8 11.3333V16.6667C8.00024 16.9005 8.06196 17.1301 8.17897 17.3326C8.29599 17.535 8.46418 17.7031 8.66667 17.82L13.3333 20.4867C13.536 20.6037 13.766 20.6653 14 20.6653C14.234 20.6653 14.464 20.6037 14.6667 20.4867L16 19.7267" stroke="#1F2937" stroke-linecap="round" stroke-linejoin="round"/>
<path d="M11 8.84668L17 12.28" stroke="#1F2937" stroke-linecap="round" stroke-linejoin="round"/>
<path d="M8.19336 10.6667L14 14L19.8067 10.6667" stroke="#1F2937" stroke-linecap="round" stroke-linejoin="round"/>
<path d="M14 20.6667V14" stroke="#1F2937" stroke-linecap="round" stroke-linejoin="round"/>
<path d="M18.3334 18C19.2538 18 20 17.2538 20 16.3334C20 15.4129 19.2538 14.6667 18.3334 14.6667C17.4129 14.6667 16.6667 15.4129 16.6667 16.3334C16.6667 17.2538 17.4129 18 18.3334 18Z" stroke="black" stroke-linecap="round" stroke-linejoin="round"/>
<path d="M19.5133 17.5133L20.6666 18.6666" stroke="black" stroke-linecap="round" stroke-linejoin="round"/>
</svg>
