<svg width="16" height="16" viewBox="0 0 16 16" fill="none" xmlns="http://www.w3.org/2000/svg">
<path d="M3.33333 12H2C1.6 12 1.33333 11.7333 1.33333 11.3333V4.66667C1.33333 4.26667 1.6 4 2 4H8.66666C9.06666 4 9.33333 4.26667 9.33333 4.66667V12" stroke="#6B7280" stroke-linecap="round" stroke-linejoin="round"/>
<path d="M9.33333 6H12L14.6667 8.66667V11.3333C14.6667 11.7333 14.4 12 14 12H12.6667" stroke="#6B7280" stroke-linecap="round" stroke-linejoin="round"/>
<path d="M4.66667 13.3334C5.40305 13.3334 6 12.7364 6 12C6 11.2636 5.40305 10.6667 4.66667 10.6667C3.93029 10.6667 3.33333 11.2636 3.33333 12C3.33333 12.7364 3.93029 13.3334 4.66667 13.3334Z" stroke="#6B7280" stroke-linecap="round" stroke-linejoin="round"/>
<path d="M10 12H6" stroke="#6B7280" stroke-linecap="round" stroke-linejoin="round"/>
<path d="M11.3333 13.3334C12.0697 13.3334 12.6667 12.7364 12.6667 12C12.6667 11.2636 12.0697 10.6667 11.3333 10.6667C10.597 10.6667 10 11.2636 10 12C10 12.7364 10.597 13.3334 11.3333 13.3334Z" stroke="#6B7280" stroke-linecap="round" stroke-linejoin="round"/>
</svg>
